<svg width="30" height="30" viewBox="0 0 30 30" fill="none" xmlns="http://www.w3.org/2000/svg">
<path d="M15.0897 2.44125L18.2557 8.85635C18.5616 9.47616 19.1529 9.90575 19.8369 10.0051L26.9164 11.0338C26.9473 11.0383 26.9602 11.0477 26.9674 11.0541C26.9778 11.0632 26.9897 11.0792 26.9971 11.1019C27.0045 11.1246 27.0042 11.1446 27.0012 11.158C26.9991 11.1674 26.9942 11.1826 26.9718 11.2044L21.849 16.1979C21.3541 16.6803 21.1282 17.3754 21.2451 18.0567L22.4544 25.1075C22.4597 25.1383 22.4547 25.1535 22.4509 25.1624C22.4454 25.175 22.434 25.1913 22.4146 25.2053C22.3953 25.2194 22.3762 25.2253 22.3625 25.2266C22.3529 25.2275 22.337 25.2275 22.3093 25.2129L15.9772 21.884C15.3654 21.5623 14.6346 21.5623 14.0228 21.884L7.6907 25.2129C7.66304 25.2275 7.64708 25.2275 7.63748 25.2266C7.62375 25.2253 7.60473 25.2194 7.58539 25.2053C7.56605 25.1913 7.55456 25.175 7.54909 25.1624C7.54528 25.1535 7.54032 25.1383 7.5456 25.1075L8.75492 18.0567C8.87176 17.3754 8.64591 16.6803 8.15097 16.1979L3.02821 11.2044C3.00583 11.1826 3.00092 11.1674 2.99881 11.158C2.99578 11.1446 2.99552 11.1246 3.00291 11.1019C3.01029 11.0792 3.02221 11.0632 3.03257 11.0541C3.0398 11.0477 3.0527 11.0383 3.08363 11.0338L10.1631 10.0051C10.8471 9.90575 11.4384 9.47615 11.7443 8.85635L14.9103 2.44125C14.9242 2.41322 14.9371 2.40386 14.9454 2.39894C14.9572 2.39191 14.9761 2.38551 15 2.38551C15.0239 2.38551 15.0428 2.39191 15.0546 2.39894C15.0629 2.40386 15.0758 2.41322 15.0897 2.44125Z" stroke="#FCC141" stroke-width="2"/>
<mask id="mask0_1_690" style="mask-type:alpha" maskUnits="userSpaceOnUse" x="1" y="1" width="28" height="26">
<path d="M14.0136 1.99868C14.4171 1.18111 15.5829 1.18111 15.9864 1.99868L19.1525 8.41379C19.3127 8.73845 19.6224 8.96347 19.9807 9.01553L27.0602 10.0442C27.9624 10.1753 28.3227 11.2841 27.6698 11.9205L22.547 16.914C22.2878 17.1667 22.1695 17.5308 22.2307 17.8876L23.44 24.9385C23.5941 25.8371 22.651 26.5223 21.844 26.0981L15.5119 22.7691C15.1914 22.6006 14.8086 22.6006 14.4881 22.7691L8.15604 26.0981C7.34905 26.5223 6.40587 25.8371 6.56 24.9385L7.76932 17.8876C7.83052 17.5308 7.71221 17.1667 7.45296 16.914L2.3302 11.9205C1.67733 11.2841 2.03759 10.1753 2.93983 10.0442L10.0193 9.01553C10.3776 8.96347 10.6873 8.73844 10.8475 8.41379L14.0136 1.99868Z" fill="#FCC141"/>
</mask>
<g mask="url(#mask0_1_690)">
<rect width="15" height="30" rx="1.1" fill="#FCC141"/>
</g>
</svg>
